<svg id="visual" viewBox="0 0 600 900" width="600" height="900" xmlns="http://www.w3.org/2000/svg" xmlns:xlink="http://www.w3.org/1999/xlink" version="1.1"><rect x="0" y="0" width="600" height="900" fill="#f5f5f5"></rect><path d="M0 656L14.3 658.8C28.7 661.7 57.3 667.3 85.8 647.2C114.3 627 142.7 581 171.2 529.5C199.7 478 228.3 421 257 442C285.7 463 314.3 562 343 558C371.7 554 400.3 447 428.8 414C457.3 381 485.7 422 514.2 458C542.7 494 571.3 525 585.7 540.5L600 556L600 901L585.7 901C571.3 901 542.7 901 514.2 901C485.7 901 457.3 901 428.8 901C400.3 901 371.7 901 343 901C314.3 901 285.7 901 257 901C228.3 901 199.7 901 171.2 901C142.7 901 114.3 901 85.8 901C57.3 901 28.7 901 14.3 901L0 901Z" fill="#0066FF" stroke-linecap="round" stroke-linejoin="miter"></path></svg>